<?xml version="1.0" encoding="UTF-8" standalone="no"?>
<!-- Created with Inkscape (http://www.inkscape.org/) -->

<svg
   xmlns:osb="http://www.openswatchbook.org/uri/2009/osb"
   xmlns:dc="http://purl.org/dc/elements/1.1/"
   xmlns:cc="http://creativecommons.org/ns#"
   xmlns:rdf="http://www.w3.org/1999/02/22-rdf-syntax-ns#"
   xmlns:svg="http://www.w3.org/2000/svg"
   xmlns="http://www.w3.org/2000/svg"
   xmlns:xlink="http://www.w3.org/1999/xlink"
   xmlns:sodipodi="http://sodipodi.sourceforge.net/DTD/sodipodi-0.dtd"
   xmlns:inkscape="http://www.inkscape.org/namespaces/inkscape"
   width="512"
   height="512"
   viewBox="0 0 512 512"
   version="1.1"
   id="svg8"
   inkscape:version="0.92.3 (2405546, 2018-03-11)"
   sodipodi:docname="logo.svg"
   inkscape:export-filename="/home/ac2droid/Документи/assets/logo.png"
   inkscape:export-xdpi="96"
   inkscape:export-ydpi="96">
  <defs
     id="defs2">
    <inkscape:path-effect
       end_linecap_type="zerowidth"
       miter_limit="4"
       linejoin_type="extrp_arc"
       start_linecap_type="zerowidth"
       interpolator_beta="0.2"
       interpolator_type="CubicBezierJohan"
       sort_points="true"
       offset_points="11,0.5"
       is_visible="true"
       id="path-effect1186"
       effect="powerstroke" />
    <linearGradient
       id="linearGradient896"
       inkscape:collect="always">
      <stop
         id="stop892"
         offset="0"
         style="stop-color:#cefdfd;stop-opacity:1;" />
      <stop
         id="stop894"
         offset="1"
         style="stop-color:#eafefe;stop-opacity:1" />
    </linearGradient>
    <linearGradient
       inkscape:collect="always"
       id="linearGradient8455">
      <stop
         style="stop-color:#cefdfd;stop-opacity:1;"
         offset="0"
         id="stop8451" />
      <stop
         style="stop-color:#cefdfd;stop-opacity:0;"
         offset="1"
         id="stop8453" />
    </linearGradient>
    <linearGradient
       inkscape:collect="always"
       id="linearGradient8447">
      <stop
         style="stop-color:#cefdfd;stop-opacity:1;"
         offset="0"
         id="stop8443" />
      <stop
         style="stop-color:#cefdfd;stop-opacity:0;"
         offset="1"
         id="stop8445" />
    </linearGradient>
    <linearGradient
       inkscape:collect="always"
       id="linearGradient8439">
      <stop
         style="stop-color:#cefdfd;stop-opacity:1;"
         offset="0"
         id="stop8435" />
      <stop
         style="stop-color:#cefdfd;stop-opacity:0;"
         offset="1"
         id="stop8437" />
    </linearGradient>
    <linearGradient
       inkscape:collect="always"
       id="linearGradient8431">
      <stop
         style="stop-color:#cefdfd;stop-opacity:1;"
         offset="0"
         id="stop8427" />
      <stop
         style="stop-color:#cefdfd;stop-opacity:0;"
         offset="1"
         id="stop8429" />
    </linearGradient>
    <inkscape:path-effect
       effect="skeletal"
       id="path-effect8417"
       is_visible="true"
       pattern="M 0,5 C 0,2.24 2.24,0 5,0 7.76,0 10,2.24 10,5 10,7.76 7.76,10 5,10 2.24,10 0,7.76 0,5 Z"
       copytype="single_stretched"
       prop_scale="1"
       scale_y_rel="false"
       spacing="0"
       normal_offset="0"
       tang_offset="0"
       prop_units="false"
       vertical_pattern="false"
       fuse_tolerance="0" />
    <inkscape:path-effect
       effect="skeletal"
       id="path-effect8413"
       is_visible="true"
       pattern="M 0,5 C 0,2.24 2.24,0 5,0 7.76,0 10,2.24 10,5 10,7.76 7.76,10 5,10 2.24,10 0,7.76 0,5 Z"
       copytype="single_stretched"
       prop_scale="1"
       scale_y_rel="false"
       spacing="0"
       normal_offset="0"
       tang_offset="0"
       prop_units="false"
       vertical_pattern="false"
       fuse_tolerance="0" />
    <inkscape:path-effect
       effect="skeletal"
       id="path-effect8409"
       is_visible="true"
       pattern="M 0,5 C 0,2.24 2.24,0 5,0 7.76,0 10,2.24 10,5 10,7.76 7.76,10 5,10 2.24,10 0,7.76 0,5 Z"
       copytype="single_stretched"
       prop_scale="1"
       scale_y_rel="false"
       spacing="0"
       normal_offset="0"
       tang_offset="0"
       prop_units="false"
       vertical_pattern="false"
       fuse_tolerance="0" />
    <linearGradient
       inkscape:collect="always"
       id="linearGradient8403">
      <stop
         style="stop-color:#73d216;stop-opacity:1;"
         offset="0"
         id="stop8399" />
      <stop
         style="stop-color:#d8f8b8;stop-opacity:1"
         offset="1"
         id="stop8401" />
    </linearGradient>
    <linearGradient
       id="linearGradient8383"
       osb:paint="solid">
      <stop
         style="stop-color:#73d216;stop-opacity:1;"
         offset="0"
         id="stop8381" />
    </linearGradient>
    <inkscape:path-effect
       effect="skeletal"
       id="path-effect8315"
       is_visible="true"
       pattern="m 17.97336,-3.40428 c 0,-2.76 2.24,-5 5,-5 2.76,0 5,2.24 5,5 0,2.76 -2.24,5 -5,5 -2.76,0 -5,-2.24 -5,-5 z"
       copytype="single_stretched"
       prop_scale="4.4938208"
       scale_y_rel="false"
       spacing="0"
       normal_offset="0"
       tang_offset="0"
       prop_units="false"
       vertical_pattern="false"
       fuse_tolerance="0" />
    <inkscape:path-effect
       effect="bspline"
       id="path-effect8313"
       is_visible="true"
       weight="33.333333"
       steps="2"
       helper_size="0"
       apply_no_weight="true"
       apply_with_weight="true"
       only_selected="false" />
    <inkscape:path-effect
       effect="skeletal"
       id="path-effect8293"
       is_visible="true"
       pattern="m -10.728763,37.140688 c 0,-2.76 2.2400008,-5 5.0000008,-5 2.7600004,0 5.00000044,2.24 5.00000044,5 0,2.76 -2.24000004,5 -5.00000044,5 -2.76,0 -5.0000008,-2.24 -5.0000008,-5 z"
       copytype="single_stretched"
       prop_scale="2.5618776"
       scale_y_rel="false"
       spacing="0"
       normal_offset="0"
       tang_offset="0"
       prop_units="false"
       vertical_pattern="false"
       fuse_tolerance="0" />
    <inkscape:path-effect
       effect="bspline"
       id="path-effect8291"
       is_visible="true"
       weight="33.333333"
       steps="2"
       helper_size="0"
       apply_no_weight="true"
       apply_with_weight="true"
       only_selected="false" />
    <inkscape:path-effect
       effect="skeletal"
       id="path-effect8279"
       is_visible="true"
       pattern="M 0,5 C 0,2.24 2.24,0 5,0 7.76,0 10,2.24 10,5 10,7.76 7.76,10 5,10 2.24,10 0,7.76 0,5 Z"
       copytype="single_stretched"
       prop_scale="1.1299917"
       scale_y_rel="false"
       spacing="0"
       normal_offset="0"
       tang_offset="0"
       prop_units="false"
       vertical_pattern="false"
       fuse_tolerance="0" />
    <inkscape:path-effect
       effect="bspline"
       id="path-effect8277"
       is_visible="true"
       weight="33.333333"
       steps="2"
       helper_size="0"
       apply_no_weight="true"
       apply_with_weight="true"
       only_selected="false" />
    <inkscape:path-effect
       effect="skeletal"
       id="path-effect8273"
       is_visible="true"
       pattern="M 0,5 C 0,2.24 2.24,0 5,0 7.76,0 10,2.24 10,5 10,7.76 7.76,10 5,10 2.24,10 0,7.76 0,5 Z"
       copytype="single_stretched"
       prop_scale="1"
       scale_y_rel="false"
       spacing="0"
       normal_offset="0"
       tang_offset="0"
       prop_units="false"
       vertical_pattern="false"
       fuse_tolerance="0" />
    <linearGradient
       inkscape:collect="always"
       id="linearGradient8242">
      <stop
         style="stop-color:#965252;stop-opacity:1;"
         offset="0"
         id="stop8238" />
      <stop
         style="stop-color:#965252;stop-opacity:0;"
         offset="1"
         id="stop8240" />
    </linearGradient>
    <inkscape:path-effect
       effect="skeletal"
       id="path-effect8236"
       is_visible="true"
       pattern="M 0,5 C 0,2.24 2.24,0 5,0 7.76,0 10,2.24 10,5 10,7.76 7.76,10 5,10 2.24,10 0,7.76 0,5 Z"
       copytype="single_stretched"
       prop_scale="-0.78185897"
       scale_y_rel="false"
       spacing="0"
       normal_offset="0"
       tang_offset="0"
       prop_units="false"
       vertical_pattern="false"
       fuse_tolerance="0" />
    <linearGradient
       inkscape:collect="always"
       id="linearGradient8196">
      <stop
         style="stop-color:#640000;stop-opacity:1;"
         offset="0"
         id="stop8192" />
      <stop
         style="stop-color:#640000;stop-opacity:0;"
         offset="1"
         id="stop8194" />
    </linearGradient>
    <inkscape:path-effect
       effect="powerstroke"
       id="path-effect8132"
       is_visible="true"
       offset_points="7,0.5"
       sort_points="true"
       interpolator_type="CubicBezierJohan"
       interpolator_beta="0.2"
       start_linecap_type="zerowidth"
       linejoin_type="extrp_arc"
       miter_limit="4"
       end_linecap_type="zerowidth" />
    <inkscape:path-effect
       effect="powerstroke"
       id="path-effect8114"
       is_visible="true"
       offset_points="0,0.5"
       sort_points="true"
       interpolator_type="CubicBezierJohan"
       interpolator_beta="0.2"
       start_linecap_type="zerowidth"
       linejoin_type="extrp_arc"
       miter_limit="4"
       end_linecap_type="zerowidth" />
    <inkscape:path-effect
       effect="powerstroke"
       id="path-effect8102"
       is_visible="true"
       offset_points="13,0.5"
       sort_points="true"
       interpolator_type="CubicBezierJohan"
       interpolator_beta="0.2"
       start_linecap_type="zerowidth"
       linejoin_type="extrp_arc"
       miter_limit="4"
       end_linecap_type="zerowidth" />
    <inkscape:path-effect
       effect="powerstroke"
       id="path-effect8074"
       is_visible="true"
       offset_points="4.5275478,-9.1981588"
       sort_points="true"
       interpolator_type="CubicBezierJohan"
       interpolator_beta="0.2"
       start_linecap_type="zerowidth"
       linejoin_type="extrp_arc"
       miter_limit="4"
       end_linecap_type="zerowidth" />
    <inkscape:path-effect
       effect="spiro"
       id="path-effect8072"
       is_visible="true" />
    <inkscape:path-effect
       effect="powerstroke"
       id="path-effect8056"
       is_visible="true"
       offset_points="11,0.5"
       sort_points="true"
       interpolator_type="CubicBezierJohan"
       interpolator_beta="0.2"
       start_linecap_type="zerowidth"
       linejoin_type="extrp_arc"
       miter_limit="4"
       end_linecap_type="zerowidth" />
    <linearGradient
       inkscape:collect="always"
       id="linearGradient8050">
      <stop
         style="stop-color:#f57900;stop-opacity:1;"
         offset="0"
         id="stop8046" />
      <stop
         style="stop-color:#fff8f1;stop-opacity:1"
         offset="1"
         id="stop8048" />
    </linearGradient>
    <linearGradient
       id="linearGradient7984"
       osb:paint="solid">
      <stop
         style="stop-color:#169a06;stop-opacity:1;"
         offset="0"
         id="stop7982" />
    </linearGradient>
    <inkscape:path-effect
       effect="powerstroke"
       id="path-effect7927"
       is_visible="true"
       offset_points="24,0.5"
       sort_points="true"
       interpolator_type="CubicBezierJohan"
       interpolator_beta="0.2"
       start_linecap_type="zerowidth"
       linejoin_type="extrp_arc"
       miter_limit="4"
       end_linecap_type="zerowidth" />
    <linearGradient
       id="linearGradient7899"
       osb:paint="solid">
      <stop
         style="stop-color:#000000;stop-opacity:1;"
         offset="0"
         id="stop7897" />
    </linearGradient>
    <inkscape:path-effect
       effect="powerstroke"
       id="path-effect6423"
       is_visible="true"
       offset_points="23,0.5"
       sort_points="true"
       interpolator_type="CubicBezierJohan"
       interpolator_beta="0.2"
       start_linecap_type="zerowidth"
       linejoin_type="extrp_arc"
       miter_limit="4"
       end_linecap_type="zerowidth" />
    <linearGradient
       inkscape:collect="always"
       xlink:href="#linearGradient8050"
       id="linearGradient8052"
       x1="257.64102"
       y1="342.70251"
       x2="303.91794"
       y2="333.51279"
       gradientUnits="userSpaceOnUse" />
    <linearGradient
       inkscape:collect="always"
       xlink:href="#linearGradient8196"
       id="linearGradient8198"
       x1="152.89139"
       y1="363.67445"
       x2="207.26838"
       y2="363.67445"
       gradientUnits="userSpaceOnUse" />
    <linearGradient
       inkscape:collect="always"
       xlink:href="#linearGradient8242"
       id="linearGradient8244"
       x1="294.22474"
       y1="364.84406"
       x2="357.86313"
       y2="370.75174"
       gradientUnits="userSpaceOnUse" />
    <linearGradient
       inkscape:collect="always"
       xlink:href="#linearGradient896"
       id="linearGradient8309"
       x1="329.66904"
       y1="370.22897"
       x2="358.23444"
       y2="398.7623"
       gradientUnits="userSpaceOnUse"
       gradientTransform="matrix(0.54435192,-0.76948854,0.76948854,0.54435192,-144.96519,450.0276)" />
    <linearGradient
       inkscape:collect="always"
       xlink:href="#linearGradient896"
       id="linearGradient8323"
       x1="172.03433"
       y1="366.45563"
       x2="152.28755"
       y2="393.69669"
       gradientUnits="userSpaceOnUse"
       gradientTransform="matrix(1.0778193,1.3495544,-1.3495544,1.0778193,457.53641,-265.12645)" />
    <linearGradient
       inkscape:collect="always"
       xlink:href="#linearGradient8403"
       id="linearGradient8405"
       x1="265.51794"
       y1="549.14355"
       x2="259.93845"
       y2="576.38464"
       gradientUnits="userSpaceOnUse" />
    <radialGradient
       inkscape:collect="always"
       xlink:href="#linearGradient8431"
       id="radialGradient8433"
       cx="223.263"
       cy="350.25033"
       fx="223.263"
       fy="350.25033"
       r="20.508094"
       gradientTransform="matrix(1,0,0,0.23266554,0,268.75915)"
       gradientUnits="userSpaceOnUse" />
    <radialGradient
       inkscape:collect="always"
       xlink:href="#linearGradient8439"
       id="radialGradient8441"
       cx="279.55801"
       cy="298.3909"
       fx="279.55801"
       fy="298.3909"
       r="10.62324"
       gradientTransform="matrix(1,0,0,0.75985376,0,71.657454)"
       gradientUnits="userSpaceOnUse" />
    <radialGradient
       inkscape:collect="always"
       xlink:href="#linearGradient8447"
       id="radialGradient8449"
       cx="288.01959"
       cy="397.50934"
       fx="288.01959"
       fy="397.50934"
       r="21.295992"
       gradientTransform="matrix(1,0,0,0.22449689,0,308.26973)"
       gradientUnits="userSpaceOnUse" />
    <radialGradient
       inkscape:collect="always"
       xlink:href="#linearGradient8455"
       id="radialGradient8457"
       cx="207.14193"
       cy="445.35269"
       fx="207.14193"
       fy="445.35269"
       r="8.1550173"
       gradientTransform="matrix(1,0,0,0.77767687,0,99.012202)"
       gradientUnits="userSpaceOnUse" />
    <linearGradient
       inkscape:collect="always"
       xlink:href="#linearGradient896"
       id="linearGradient1182"
       gradientUnits="userSpaceOnUse"
       gradientTransform="matrix(1.0778193,1.3495544,-1.3495544,1.0778193,457.53641,-265.12645)"
       x1="172.03433"
       y1="366.45563"
       x2="152.28755"
       y2="393.69669" />
  </defs>
  <sodipodi:namedview
     id="base"
     pagecolor="#ffffff"
     bordercolor="#2f6666"
     borderopacity="1"
     inkscape:pageopacity="0.0"
     inkscape:pageshadow="2"
     inkscape:zoom="1"
     inkscape:cx="261.47985"
     inkscape:cy="239.23644"
     inkscape:document-units="px"
     inkscape:current-layer="g1180"
     showgrid="false"
     units="px"
     inkscape:pagecheckerboard="true"
     showborder="true"
     showguides="true"
     inkscape:window-width="1680"
     inkscape:window-height="995"
     inkscape:window-x="0"
     inkscape:window-y="31"
     inkscape:window-maximized="1" />
  <metadata
     id="metadata5">
    <rdf:RDF>
      <cc:Work
         rdf:about="">
        <dc:format>image/svg+xml</dc:format>
        <dc:type
           rdf:resource="http://purl.org/dc/dcmitype/StillImage" />
        <dc:title />
      </cc:Work>
    </rdf:RDF>
  </metadata>
  <g
     inkscape:groupmode="layer"
     id="layer3"
     inkscape:label="backplan" />
  <g
     inkscape:label="Layer 1"
     inkscape:groupmode="layer"
     id="layer1"
     transform="translate(0,-161.53331)"
     style="display:inline" />
  <g
     inkscape:groupmode="layer"
     id="layer2"
     inkscape:label="Layer 2"
     style="display:none;opacity:0.96799999"
     sodipodi:insensitive="true">
    <image
       sodipodi:absref="/home/ac2droid/Документи/assets/carrot.png"
       xlink:href="carrot.png"
       y="14.030769"
       x="18.625641"
       id="image1965"
       style="image-rendering:optimizeQuality"
       preserveAspectRatio="none"
       height="480"
       width="480" />
  </g>
  <g
     id="g1180"
     transform="matrix(1.4333422,0,0,1.4333422,-88.51703,-97.11135)">
    <path
       inkscape:original-d="m 270.18895,404.18842 c 2.30176,-2.54115 4.60373,-5.08099 6.90594,-7.61951 1.85356,-0.83671 3.70824,-1.67249 5.56271,-2.50676 2.39363,-0.70739 4.78829,-1.4137 7.18278,-2.11857 1.94615,0.9967 3.89279,1.99482 5.83953,2.9942 1.09859,1.66053 2.19663,3.32115 3.29528,4.98371 1.66607,-0.21282 3.33035,-0.42408 4.99585,-0.63414 1.75555,-1.4119 3.5112,-2.82238 5.26714,-4.2316 3.25552,-0.85504 6.39402,-1.54089 9.59138,-2.30937 1.49664,-0.33178 2.9936,-0.66228 4.49074,-0.99145 2.88247,1.28011 5.76542,2.56166 8.64845,3.84447 1.62428,1.27422 3.24801,2.54917 4.87236,3.82573 2.65814,-0.90093 5.31397,-1.79969 7.97129,-2.69756 0.8478,-0.66444 1.69594,-1.32766 2.54424,-1.98952 1.83235,-0.0935 3.66708,-0.18586 5.50096,-0.27682 1.63027,0.0152 3.26049,0.0318 4.89107,0.0496 0.2031,-0.11015 0.40636,-0.21894 0.60987,-0.32644"
       inkscape:path-effect="#path-effect8291;#path-effect8293"
       inkscape:connector-curvature="0"
       id="path8289"
       d="m 270.18895,404.18842 c -1.75735,-1.59277 -2.41014,-6.47688 1.8931,-12.66484 0,0 0,0 0,0 1.93244,-2.44813 4.52979,-4.70431 7.57564,-6.40742 1.99537,-1.42668 5.36057,-2.88503 10.69043,-3.21837 4.75697,0.15882 9.21493,1.65142 12.65212,4.50175 3.40161,2.55136 3.9986,3.76168 1.96943,1.6993 -3.98917,-1.05774 -6.02175,-1.65185 -6.35177,-0.79705 0.242,-0.1458 2.26394,-1.75015 6.25116,-3.66206 0.93087,-0.39453 1.83922,-0.74598 2.7223,-1.0593 2.88179,-1.02248 5.41412,-1.61049 7.48961,-1.98027 2.45261,-0.74155 6.43259,-0.98335 11.55979,-0.14376 4.58582,1.29612 7.99239,3.16913 10.43889,5.01923 3.35592,1.73377 2.75536,2.69585 1.21024,2.24975 0,0 0,0 0,0 -0.84438,0.67131 0.0914,0.64457 1.86524,0.70082 0.44745,0.18833 2.60775,-0.54234 5.53486,-1.06689 3.43904,-0.22221 5.58748,0.48725 6.93511,1.17821 2.02696,0.83499 3.41342,1.97447 4.2583,2.89982 0.90532,0.77805 0.98519,1.83171 1.47514,2.74705 0.60666,1.1334 0.11165,1.99846 -1.1715,3.27436 -1.11423,1.20813 -2.54755,1.98579 -4.30049,3.03501 -1.39262,0.76638 -2.79339,1.44904 -2.87843,2.1936 0.31391,0.18769 0.0488,1.12007 -2.34683,2.57718 -2.03659,1.72595 -5.5612,3.41118 -11.23529,3.6848 0,0 -10e-6,0 -10e-6,0 -6.02904,-0.88257 -9.87989,-2.52261 -10.8279,-3.23302 -1.94498,-0.6411 -3.44641,-1.1786 -4.21309,-1.05126 1.16622,-0.008 1.16676,0.44557 -0.50697,0.66682 -1.97847,0.58101 -3.62677,0.9801 -4.80976,1.38517 -0.36169,0.12385 -0.6764,0.24743 -0.94445,0.3771 -0.17897,-0.0945 -2.02002,1.27458 -5.70869,2.97915 -3.3814,2.30902 -9.01484,2.3577 -15.86729,-0.20292 -5.41493,-3.85023 -6.69775,-5.92794 -6.03734,-5.73197 0.14597,-0.023 0.6149,-0.33585 1.3737,-0.44526 0.47889,-0.63706 -0.6962,-0.55501 -2.68662,-0.55567 -1.99341,0.0737 -3.11121,0.0135 -4.53718,0.18046 0,0 -10e-6,0 -10e-6,10e-6 -5.35576,1.1234 -8.86846,3.22968 -11.47144,0.87047 z"
       style="fill:url(#linearGradient8309);fill-opacity:1;fill-rule:evenodd;stroke:#750000;stroke-width:0.94256651px;stroke-linecap:butt;stroke-linejoin:miter;stroke-opacity:1" />
    <path
       inkscape:original-d="m 221.21026,492.36408 -20.34872,-41.35385 -2.62564,-36.10256 5.25128,-62.35898 17.06667,-44.63589 10.50256,-21.66154 10.50256,-14.44103 13.78462,-5.90769 -0.65641,-25.6 2.62564,24.94359 13.78462,9.84615 13.1282,16.41026 7.22051,15.75385 12.4718,26.25641 5.25128,47.26154 -0.65641,47.91794 -5.90769,32.16411 -5.25128,13.78461 -12.4718,14.44103 -3.93846,1.31282 -14.44103,-6.5641 -15.75384,2.62564 -24.94359,1.96923 z"
       inkscape:path-effect="#path-effect6423"
       inkscape:connector-curvature="0"
       id="path6421"
       d="m 221.21026,492.36408 -20.34872,-41.35385 -2.62564,-36.10256 5.25128,-62.35898 17.06667,-44.63589 10.50256,-21.66154 10.50256,-14.44103 13.78462,-5.90769 -0.65641,-25.6 2.62564,24.94359 13.78462,9.84615 13.1282,16.41026 7.22051,15.75385 12.4718,26.25641 5.25128,47.26154 -0.65641,47.91794 -5.90769,32.16411 -5.25128,13.78461 -12.4718,14.44103 -3.93846,1.31282 -14.44103,-6.5641 -15.75384,2.62564 -24.94359,1.96923 z"
       style="display:inline;fill:url(#linearGradient8052);fill-opacity:1;fill-rule:nonzero;stroke:#750000;stroke-width:1px;stroke-linecap:butt;stroke-linejoin:miter;stroke-opacity:1"
       transform="translate(0,-161.53331)" />
    <path
       inkscape:original-d="m 221.21026,492.36408 -13.78462,30.85128 15.09744,-11.15897 -5.9077,55.79487 19.69231,-52.51282 1.31282,34.78974 3.93846,30.85128 L 256,552.09741 l 3.28205,-37.41538 5.25128,27.56923 12.4718,34.13333 3.28205,3.93846 6.5641,-11.81538 -1.96923,-27.56923 -3.93846,-15.75385 1.96923,-19.69231 22.31795,59.07693 1.96923,-16.41026 -5.90769,-19.0359 -16.41026,-40.04102 -3.93846,1.31282 -14.44103,-6.5641 -40.69743,4.59487 v 0 z"
       inkscape:path-effect="#path-effect7927"
       inkscape:connector-curvature="0"
       id="path7925"
       d="m 221.21026,492.36408 -13.78462,30.85128 15.09744,-11.15897 -5.9077,55.79487 19.69231,-52.51282 1.31282,34.78974 3.93846,30.85128 L 256,552.09741 l 3.28205,-37.41538 5.25128,27.56923 12.4718,34.13333 3.28205,3.93846 6.5641,-11.81538 -1.96923,-27.56923 -3.93846,-15.75385 1.96923,-19.69231 22.31795,59.07693 1.96923,-16.41026 -5.90769,-19.0359 -16.41026,-40.04102 -3.93846,1.31282 -14.44103,-6.5641 -40.69743,4.59487 v 0 z"
       style="display:inline;fill:url(#linearGradient8405);fill-opacity:1;fill-rule:nonzero;stroke:#750000;stroke-width:1px;stroke-linecap:butt;stroke-linejoin:miter;stroke-opacity:1"
       transform="translate(0,-161.53331)" />
    <path
       sodipodi:nodetypes="cccccccccccc"
       inkscape:original-d="m 158.19487,287.56408 10.83077,9.18974 -4.92308,11.81539 13.78462,-7.54872 v 0 l 5.25128,8.20513 -1.31282,-11.48718 12.4718,-6.2359 -15.75385,-1.96923 -1.64103,-13.78462 -6.5641,15.09744 z"
       inkscape:path-effect="#path-effect8056"
       inkscape:connector-curvature="0"
       id="path8054"
       d="m 158.19487,287.56408 10.83077,9.18974 -3.61026,9.51795 5.57949,-4.26667 6.89231,-0.98461 5.25128,8.20513 -1.31282,-11.48718 12.4718,-6.2359 -15.75385,-1.96923 -1.64103,-13.78462 -6.5641,15.09744 z"
       style="display:inline;fill:#e4f500;fill-opacity:1;fill-rule:nonzero;stroke:#750000;stroke-width:1px;stroke-linecap:butt;stroke-linejoin:miter;stroke-opacity:1"
       transform="translate(0,-161.53331)" />
    <path
       inkscape:original-d="M 203.48718,352.54869 Z"
       inkscape:path-effect="#path-effect8114"
       inkscape:connector-curvature="0"
       id="path8112"
       d="M 203.48718,352.54869 Z"
       style="display:inline;fill:#000000;fill-rule:nonzero;stroke:none;stroke-width:1px;stroke-linecap:butt;stroke-linejoin:miter;stroke-opacity:1"
       transform="translate(0,-161.53331)" />
    <path
       inkscape:original-d="M 203.48718,352.54869 Z"
       inkscape:path-effect="#path-effect8413"
       inkscape:connector-curvature="0"
       id="path8411"
       d="m 203.48718,352.54869 c 0,0 0,0 0,0 0,0 0,0 0,0 0,0 0,0 0,0 0,0 0,0 0,0 z"
       style="display:inline;fill:#000000;fill-rule:evenodd;stroke:none;stroke-width:1px;stroke-linecap:butt;stroke-linejoin:miter;stroke-opacity:1"
       transform="translate(0,-161.53331)" />
    <path
       inkscape:connector-curvature="0"
       id="path8419"
       d="m 206.11282,346.3128 -2.62564,6.23589 9.51795,0.65641 7.22051,1.31283 7.54872,-0.65642 14.76923,-0.98461 0.65641,-4.92308 h -23.30256 l -1.96923,-1.96923 z"
       style="display:inline;fill:url(#radialGradient8433);fill-opacity:1;fill-rule:evenodd;stroke:#000000;stroke-width:1px;stroke-linecap:butt;stroke-linejoin:miter;stroke-opacity:1"
       transform="translate(0,-161.53331)" />
    <path
       sodipodi:nodetypes="cccccccc"
       inkscape:connector-curvature="0"
       id="path8421"
       d="m 269.45641,298.72305 0.32821,3.93846 8.20512,3.28206 11.48718,-2.29744 -5.25128,-12.14359 -3.28205,6.5641 -7.87692,-1.96923 z"
       style="display:inline;fill:url(#radialGradient8441);fill-opacity:1;fill-rule:evenodd;stroke:#000000;stroke-width:1px;stroke-linecap:butt;stroke-linejoin:miter;stroke-opacity:1"
       transform="translate(0,-161.53331)" />
    <path
       sodipodi:nodetypes="cccscccccc"
       inkscape:connector-curvature="0"
       id="path8423"
       d="m 309.16923,395.21537 -10.83077,-1.96924 c -1.64102,0.65641 -8.86154,0.65641 -11.15897,1.31282 -2.29744,0.65641 -6.2359,2.29744 -7.54872,2.29744 -1.31282,0 -10.17436,0.3282 -10.17436,0.3282 l -1.96923,1.64103 3.28205,2.95384 11.81539,-0.65641 10.50256,-0.98461 z"
       style="display:inline;fill:url(#radialGradient8449);fill-opacity:1;fill-rule:evenodd;stroke:#000000;stroke-width:1px;stroke-linecap:butt;stroke-linejoin:miter;stroke-opacity:1"
       transform="translate(0,-161.53331)" />
    <path
       sodipodi:nodetypes="ccccccc"
       inkscape:connector-curvature="0"
       id="path8425"
       d="m 199.54872,439.52305 15.09743,0.32821 -0.98461,3.61026 -1.31282,4.26666 -3.28205,0.32821 -8.20513,2.95384 z"
       style="display:inline;fill:url(#radialGradient8457);fill-opacity:1;fill-rule:evenodd;stroke:#000000;stroke-width:1px;stroke-linecap:butt;stroke-linejoin:miter;stroke-opacity:1"
       transform="translate(0,-161.53331)" />
    <path
       inkscape:original-d="m 236.3092,374.39283 c -3.00392,-4.36958 -6.01025,-8.73942 -9.019,-13.10956 -2.1227,-0.2376 -4.24651,-0.47536 -6.37343,-0.71345 -4.6948,-0.12176 -9.38131,-0.24355 -14.0756,-0.36572 -6.34555,0.23123 -12.68694,0.46193 -19.03406,0.69252 -2.03562,1.38605 -4.07214,2.77077 -6.11184,4.15577 -5.84426,-0.65424 -11.38687,-1.54362 -17.08397,-2.31584 -1.35465,-1.09314 -2.7106,-2.18564 -4.06955,-3.27887 -4.25052,-1.68726 -8.49346,-3.37077 -12.74383,-5.0566 -3.12843,1.53297 -6.25607,3.06409 -9.38774,4.59571 -3.15741,0.58819 -6.6088,1.41125 -9.91686,2.11649 -4.48541,-0.77119 -8.96712,-1.5416 -13.4543,-2.31283 -4.19132,1.41402 -8.38055,2.82625 -12.57444,4.23899 -3.896719,2.3885 -7.791977,4.77434 -11.691584,7.16108"
       inkscape:path-effect="#path-effect8313;#path-effect8315"
       inkscape:connector-curvature="0"
       id="path8311"
       d="m 236.3092,374.39283 c -2.01551,1.38661 -4.57295,1.5211 -7.76636,0.78404 -3.1036,-0.71633 -6.53879,-2.4463 -9.38562,-2.28191 -0.3708,0.51836 -0.2414,1.18769 0.8211,2.18763 0.5823,0.51249 0.38224,1.12513 -1.18071,1.36893 -3.69638,0.96622 -8.03499,1.99094 -12.59477,2.91727 -4.94976,1.0317 -9.63663,1.75684 -12.22363,2.94777 -0.0251,0.11157 -0.83442,0.601 -2.62244,1.27679 -2.44269,0.97866 -5.71955,1.83008 -9.88773,2.35165 -7.30521,0.72543 -14.23809,0.10317 -20.42755,-1.65295 -1.6135,-0.52205 -3.0674,-1.03737 -4.36512,-1.5325 -4.0185,-1.53324 -6.46309,-2.8429 -7.5291,-3.53333 -2.38204,-0.79781 -2.56444,-1.53827 -1.24744,-1.32668 3.23723,-1.16041 2.08337,-0.30029 -2.53876,0.46527 -5.80723,1.64155 -11.80141,2.10043 -17.61955,1.53562 -10e-6,0 -10e-6,0 -10e-6,0 -6.76139,-0.79034 -10.12228,-2.51709 -11.30708,-3.13355 -1.7198,-1.26295 -5.1566,-1.53466 -8.43866,-1.78147 -8.282362,-0.4631 -14.461346,-0.27642 -17.222778,-4.78489 -2.214495,-3.61551 -1.06074,-10.71138 6.456463,-18.13353 3.340705,-3.36641 8.632315,-7.01864 16.709665,-9.04856 6.46906,-1.28087 11.95159,-1.43585 14.12847,-2.16934 0,0 0,0 0,0 1.02883,-0.50644 2.16082,-1.25516 3.38287,-2.083 1.65178,-1.42006 7.0577,-3.63534 17.36668,-4.64527 8.7317,0.37408 15.63705,2.32416 20.22646,4.97592 2.69052,1.17075 3.98701,1.98391 3.93466,2.00518 -0.0159,0.006 -0.17056,-0.0699 -0.45553,-0.24071 2.52425,0.54708 4.37102,1.04466 5.6117,1.12254 -0.73043,0.25989 -0.6835,0.28103 0.0783,0.24296 1.69942,-0.43111 4.27233,-1.03853 7.73284,-1.59622 8.39373,-0.89885 15.0277,-0.17571 19.88262,0.76176 5.27859,0.84958 10.17668,1.98302 14.63983,3.41198 1.58032,0.42267 4.20307,1.17258 7.55333,2.49783 4.00387,1.85286 6.63424,4.1723 8.28634,6.50307 3.59706,5.86293 3.99256,10.59713 3.61624,13.66641 -0.39084,3.18772 -1.71777,5.61621 -3.61477,6.92129 z"
       style="fill:url(#linearGradient1182);fill-opacity:1;fill-rule:evenodd;stroke:#750000;stroke-width:1.72713375px;stroke-linecap:butt;stroke-linejoin:miter;stroke-opacity:1" />
  </g>
</svg>
